<svg width="138" height="47" viewBox="0 0 138 47" fill="none" xmlns="http://www.w3.org/2000/svg">
<g clip-path="url(#clip0)">
<path fill-rule="evenodd" clip-rule="evenodd" d="M103.671 25.1426C91.651 34.2846 81.3967 34.2846 69.3753 25.1426C61.5371 19.1815 54.8443 19.1815 47.0075 25.1426C35.0983 34.196 25.388 34.196 13.4802 25.1426C5.55424 19.1122 0.201161 19.1122 -7.7306 25.1426L-11 20.72C-1.36303 13.3941 6.73278 13.0971 16.7525 20.72C26.1981 27.9034 33.1686 28.7555 43.7381 20.72C53.7564 13.0971 63.0725 13.4403 72.6476 20.72C82.4759 28.1964 90.1875 28.4895 100.4 20.72C110.426 13.0971 116.979 13.0971 126.997 20.72L123.726 25.1426C115.671 19.012 111.731 19.012 103.671 25.1426ZM103.671 10.1399C91.651 19.2818 81.3967 19.2818 69.3753 10.1399C61.5371 4.17502 54.8443 4.17502 47.0075 10.1399C35.0983 19.1931 25.388 19.1931 13.4802 10.1399C5.55424 4.10939 0.201161 4.10939 -7.7306 10.1399L-11 5.71714C-1.36303 -1.61263 6.73278 -1.90571 16.7525 5.71714C26.1981 12.9005 33.1686 13.7526 43.7381 5.71714C53.7564 -1.90571 63.0725 -1.56257 72.6476 5.71714C82.4759 13.1935 90.1875 13.4867 100.4 5.71714C110.426 -1.90571 116.979 -1.90571 126.997 5.71714L123.726 10.1399C115.671 4.00913 111.731 4.00913 103.671 10.1399ZM16.7525 35.7231C26.1981 42.9103 33.1686 43.7585 43.7381 35.7231C53.7564 28.1001 63.0725 28.4434 72.6476 35.7231C82.4759 43.203 90.1875 43.4963 100.4 35.7231C110.426 28.1001 116.979 28.1001 126.997 35.7231L123.726 40.1456C115.671 34.019 111.731 34.019 103.671 40.1456C91.651 49.2879 81.3967 49.2908 69.3753 40.1456C61.5371 34.1846 54.8443 34.1846 47.0075 40.1456C35.0983 49.2035 25.388 49.2035 13.4802 40.1456C5.55424 34.1152 0.201161 34.1152 -7.7306 40.1456L-11 35.7231C-1.36303 28.3968 6.73278 28.0999 16.7525 35.7229V35.7231Z" fill="#F7D16F"/>
</g>
<defs>
<clipPath id="clip0">
<rect width="138" height="47" fill="white"/>
</clipPath>
</defs>
</svg>
