<svg width="102" height="35" viewBox="0 0 102 35" fill="none" xmlns="http://www.w3.org/2000/svg">
<g clip-path="url(#clip0)">
<path fill-rule="evenodd" clip-rule="evenodd" d="M76.6264 18.7232C67.7421 25.5311 60.1628 25.5311 51.2774 18.7232C45.484 14.2841 40.5371 14.2841 34.7447 18.7232C25.9423 25.4651 18.7651 25.4651 9.96372 18.7232C4.10537 14.2325 0.148749 14.2325 -5.71386 18.7232L-8.13037 15.4298C-1.00739 9.97436 4.97647 9.75318 12.3824 15.4298C19.3639 20.7791 24.516 21.4137 32.3282 15.4298C39.733 9.75318 46.6188 10.0087 53.6961 15.4298C60.9605 20.9973 66.6604 21.2156 74.2088 15.4298C81.619 9.75318 86.4626 9.75318 93.8675 15.4298L91.4499 18.7232C85.4958 14.1578 82.5837 14.1578 76.6264 18.7232ZM76.6264 7.55101C67.7421 14.3588 60.1628 14.3588 51.2774 7.55101C45.484 3.10906 40.5371 3.10906 34.7447 7.55101C25.9423 14.2928 18.7651 14.2928 9.96372 7.55101C4.10537 3.06019 0.148749 3.06019 -5.71386 7.55101L-8.13037 4.25745C-1.00739 -1.20089 4.97647 -1.41915 12.3824 4.25745C19.3639 9.60677 24.516 10.2413 32.3282 4.25745C39.733 -1.41915 46.6188 -1.16361 53.6961 4.25745C60.9605 9.82491 66.6604 10.0433 74.2088 4.25745C81.619 -1.41915 86.4626 -1.41915 93.8675 4.25745L91.4499 7.55101C85.4958 2.98552 82.5837 2.98552 76.6264 7.55101V7.55101ZM12.3824 26.6023C19.3639 31.9544 24.516 32.5861 32.3282 26.6023C39.733 20.9256 46.6188 21.1812 53.6961 26.6023C60.9605 32.1725 66.6604 32.3908 74.2088 26.6023C81.619 20.9256 86.4626 20.9256 93.8675 26.6023L91.4499 29.8957C85.4958 25.3333 82.5837 25.3333 76.6264 29.8957C67.7421 36.7037 60.1628 36.7059 51.2774 29.8957C45.484 25.4566 40.5371 25.4566 34.7447 29.8957C25.9423 36.6409 18.7651 36.6409 9.96372 29.8957C4.10537 25.4049 0.148749 25.4049 -5.71386 29.8957L-8.13037 26.6023C-1.00739 21.1466 4.97647 20.9255 12.3824 26.6022V26.6023Z" fill="#F7D16F"/>
</g>
<defs>
<clipPath id="clip0">
<rect width="102" height="35" fill="white"/>
</clipPath>
</defs>
</svg>
