<svg width="138" height="20" viewBox="0 0 138 20" fill="none" xmlns="http://www.w3.org/2000/svg">
<g clip-path="url(#clip0)">
<path fill-rule="evenodd" clip-rule="evenodd" d="M131.907 8.54445C131.208 9.38027 130.425 9.62803 129.381 8.79519L120.152 1.03101C119.367 0.362351 118.585 -0.473458 117.799 0.445945L110.834 8.38026C110.138 9.2131 109.18 9.62804 108.308 8.62804L99.0766 0.863862C98.2079 0.195206 97.25 -0.473458 96.4676 0.445945L89.4998 8.38026C88.8036 9.2131 87.8456 9.62804 86.9739 8.62804L77.7451 0.863862C76.9596 0.195206 76.0017 -0.473458 75.133 0.445945L67.4814 9.07879C66.9361 9.41909 66.3201 9.39519 65.5654 8.79519L56.3367 1.03101C55.5512 0.362351 54.7687 -0.473458 53.9833 0.445945L47.0217 8.38026C46.3224 9.2131 45.3644 9.62804 44.4957 8.62804L35.2639 0.863862C34.3922 0.195206 33.4342 -0.473458 32.6518 0.445945L25.6871 8.38026C24.9879 9.2131 24.0298 9.62804 23.1612 8.62804L13.9324 0.863862C13.147 0.195206 12.189 -0.473458 11.3172 0.445945L0 13.2191L0 18.0609L5.92044 11.2997C6.70285 10.3833 7.83333 11.1325 8.53257 11.7176L17.7644 19.4818C18.7224 20.3176 19.5048 19.9833 20.201 19.231L27.255 11.2997C27.9512 10.4668 29.1679 11.1325 29.7778 11.7176L39.0066 19.4818C40.0539 20.3176 40.8363 20.0639 41.5324 19.231L48.5002 11.2997C49.2826 10.3833 50.4162 11.1325 51.1093 11.7176L60.3411 19.4818C61.2991 20.3176 62.0815 19.9833 62.7808 19.231L70.1366 11.0489C70.8728 10.6758 71.7569 11.2251 72.3453 11.7176L81.5771 19.4818C82.5351 20.3176 83.3175 19.9833 84.0167 19.231L91.0677 11.2997C91.7638 10.4668 92.9836 11.1325 93.5936 11.7176L102.822 19.4818C103.867 20.3176 104.649 20.0639 105.348 19.231L112.313 11.2997C113.095 10.3833 114.232 11.1325 114.925 11.7176L124.157 19.4818C125.115 20.3176 125.897 19.9833 126.593 19.231L138 6.54148V1.78325L131.907 8.54445Z" fill="#FFAE63"/>
</g>
<defs>
<clipPath id="clip0">
<rect width="138" height="20" fill="white"/>
</clipPath>
</defs>
</svg>
