<svg width="234" height="54" viewBox="0 0 234 54" fill="none" xmlns="http://www.w3.org/2000/svg">
<path fill-rule="evenodd" clip-rule="evenodd" d="M193.267 32.456H218.152L205.71 54L193.267 32.456ZM158.091 32.456L182.977 32.456L170.534 54L158.091 32.456ZM122.919 32.456H147.805L135.362 54L122.919 32.456ZM87.7434 32.456H112.629L100.186 54L87.7434 32.456ZM52.5711 32.456L77.4566 32.456L65.0139 54L52.5711 32.456ZM17.3956 32.456H42.2811L29.8383 54L17.3956 32.456ZM175.871 -3.8147e-06H200.757L188.314 21.544L175.871 -3.8147e-06ZM140.699 -3.8147e-06L165.585 -3.8147e-06L153.142 21.544L140.699 -3.8147e-06ZM105.523 -3.8147e-06H130.409L117.966 21.544L105.523 -3.8147e-06ZM70.3512 -3.8147e-06L95.2367 -3.8147e-06L82.794 21.544L70.3512 -3.8147e-06ZM35.1756 -3.8147e-06H60.0611L47.6184 21.544L35.1756 -3.8147e-06ZM0.0032959 -3.8147e-06H24.8888L12.446 21.544L0.0032959 -3.8147e-06ZM209.115 -3.8147e-06H234L221.557 21.544L209.115 -3.8147e-06Z" fill="url(#paint0_linear)" fill-opacity="0.06"/>
<defs>
<linearGradient id="paint0_linear" x1="117" y1="46.5" x2="117" y2="-23.5" gradientUnits="userSpaceOnUse">
<stop stop-color="#807DFF"/>
<stop offset="1" stop-color="#807DFF"/>
</linearGradient>
</defs>
</svg>
