<svg width="54" height="234" viewBox="0 0 54 234" fill="none" xmlns="http://www.w3.org/2000/svg">
<g clip-path="url(#clip0)">
<path fill-rule="evenodd" clip-rule="evenodd" d="M21.544 193.267L21.544 218.152L0 205.71L21.544 193.267ZM21.544 158.091V182.977L0 170.534L21.544 158.091ZM21.544 122.919L21.544 147.805L0 135.362L21.544 122.919ZM21.544 87.7434L21.544 112.629L0 100.186L21.544 87.7434ZM21.544 52.5711V77.4566L0 65.0139L21.544 52.5711ZM21.544 17.3956L21.544 42.2811L0 29.8383L21.544 17.3956ZM54 175.871L54 200.757L32.456 188.314L54 175.871ZM54 140.699V165.585L32.456 153.142L54 140.699ZM54 105.523V130.409L32.456 117.966L54 105.523ZM54 70.3512V95.2367L32.456 82.794L54 70.3512ZM54 35.1756L54 60.0611L32.456 47.6184L54 35.1756ZM54 0.0032959V24.8888L32.456 12.446L54 0.0032959ZM54 209.115V234L32.456 221.557L54 209.115Z" fill="url(#paint0_linear)" fill-opacity="0.05"/>
</g>
<defs>
<linearGradient id="paint0_linear" x1="7.5" y1="117" x2="63" y2="117" gradientUnits="userSpaceOnUse">
<stop stop-color="white"/>
<stop offset="1" stop-color="white" stop-opacity="0"/>
</linearGradient>
<clipPath id="clip0">
<rect width="234" height="54" fill="white" transform="translate(0 234) rotate(-90)"/>
</clipPath>
</defs>
</svg>
