<?xml version="1.0" standalone="no"?>
<!DOCTYPE svg PUBLIC "-//W3C//DTD SVG 20010904//EN"
 "http://www.w3.org/TR/2001/REC-SVG-20010904/DTD/svg10.dtd">
<svg version="1.0" xmlns="http://www.w3.org/2000/svg"
 width="1920.000000pt" height="1920.000000pt" viewBox="0 0 1920.000000 1920.000000"
 preserveAspectRatio="xMidYMid meet">
<metadata>
Created by potrace 1.11, written by Peter Selinger 2001-2013
</metadata>
<g transform="translate(0.000000,1920.000000) scale(0.100000,-0.100000)"
fill="#000000" stroke="none">
<path d="M3660 13520 c0 -3 -26 -6 -57 -8 -154 -6 -315 -28 -498 -68 -203 -43
-503 -140 -634 -204 -25 -12 -50 -23 -55 -24 -6 -1 -61 -28 -122 -59 -742
-375 -1347 -1010 -1710 -1796 -177 -384 -314 -859 -349 -1216 -3 -33 -8 -71
-10 -85 -5 -32 -16 -157 -20 -242 -1 -36 -6 -72 -10 -79 -6 -8 -4 -10 5 -4 9
6 11 4 5 -5 -12 -19 -13 -212 -2 -227 6 -9 5 -13 -2 -13 -7 0 -9 -5 -5 -11 3
-6 8 -45 10 -87 4 -95 14 -217 20 -259 3 -17 7 -49 8 -70 18 -194 111 -594
191 -823 206 -586 519 -1093 930 -1504 99 -99 183 -177 255 -236 30 -25 57
-47 60 -50 5 -5 146 -110 180 -134 8 -6 -17 23 -57 64 -40 41 -97 107 -128
145 -31 39 -65 80 -75 91 -38 45 -170 243 -219 329 -139 241 -293 617 -336
819 -2 11 -13 57 -23 101 -20 80 -40 188 -47 254 -3 20 -6 46 -9 58 -27 128
-28 672 -2 823 2 14 7 50 11 80 4 30 8 62 10 70 1 8 5 32 9 52 50 313 200 727
365 1012 28 49 51 90 51 92 0 3 118 180 132 199 155 202 217 273 358 411 257
250 578 463 895 591 54 22 312 112 318 111 1 0 20 5 42 10 22 6 52 13 67 16
15 2 63 12 105 20 86 17 130 24 213 32 30 2 73 6 95 9 22 2 112 5 200 6 314 5
567 74 825 227 498 294 837 827 910 1432 5 46 10 101 10 120 l0 36 -897 -1
c-494 -1 -902 -3 -908 -4 -5 -2 -12 -2 -15 -1 -11 4 -90 5 -90 0z"/>
<path d="M8676 13442 c-2 -1 -38 -5 -82 -7 -43 -3 -92 -8 -109 -11 -16 -2 -46
-7 -65 -10 -19 -3 -82 -17 -140 -31 -612 -146 -1143 -598 -1432 -1218 -95
-204 -164 -437 -203 -685 -19 -124 -25 -427 -12 -575 29 -313 103 -575 242
-860 166 -338 393 -613 685 -827 36 -26 71 -52 78 -58 24 -21 11 1 -37 63
-122 155 -220 357 -279 572 -11 39 -20 73 -20 78 -1 4 -3 22 -6 40 -26 160
-29 190 -29 317 -1 111 3 161 18 275 2 17 11 62 20 100 8 39 18 80 20 92 10
45 68 200 102 273 97 207 256 415 419 546 27 21 51 42 54 45 3 4 46 33 95 64
145 94 269 145 510 210 87 23 109 28 185 41 19 3 627 7 1350 8 723 1 1326 6
1340 9 14 4 41 10 60 13 100 15 245 64 360 120 422 205 733 604 856 1099 4 17
8 35 10 40 1 6 5 28 9 50 3 22 8 45 10 52 2 6 7 48 11 92 5 65 4 81 -7 82 -48
2 -4011 3 -4013 1z"/>
<path d="M16267 13424 c-1 -1 -38 -5 -82 -8 -129 -9 -260 -28 -370 -53 -11 -2
-32 -6 -47 -9 -15 -3 -58 -14 -95 -25 -38 -11 -75 -21 -83 -24 -175 -47 -420
-159 -630 -287 -319 -193 -641 -523 -827 -848 -48 -83 -83 -153 -80 -156 2 -3
21 10 43 27 191 154 490 292 779 359 50 11 101 23 115 26 14 3 36 8 50 10 14
2 34 6 45 9 75 16 302 31 444 29 124 -1 162 -4 301 -20 252 -29 579 -139 803
-269 38 -22 76 -44 86 -50 23 -13 162 -116 182 -135 154 -142 254 -260 322
-377 197 -340 218 -732 57 -1079 -73 -157 -205 -336 -330 -445 -35 -30 -68
-59 -74 -65 -23 -22 -156 -114 -226 -155 l-73 -44 44 -13 c24 -7 58 -15 74
-18 17 -2 38 -7 47 -10 9 -3 25 -7 35 -9 88 -19 445 -135 495 -161 15 -8 29
-14 30 -14 10 4 232 -92 362 -155 102 -50 296 -157 356 -198 26 -16 26 -16
110 55 117 99 244 230 320 328 19 25 37 47 41 50 11 8 156 227 174 262 116
223 198 423 220 536 2 12 6 25 8 30 3 4 8 23 11 42 3 19 8 46 11 60 33 163 40
237 39 445 0 155 -7 259 -19 325 -3 14 -8 36 -10 50 -3 14 -7 37 -10 52 -34
187 -131 454 -227 626 -175 314 -418 587 -708 798 -53 38 -104 74 -115 81 -11
7 -50 30 -86 52 -105 64 -263 141 -390 191 -47 19 -84 32 -234 80 -36 11 -189
47 -237 55 -18 3 -40 8 -48 10 -8 2 -35 7 -60 10 -25 3 -61 8 -80 10 -99 14
-453 28 -463 19z"/>
<path d="M15387 12254 c-1 -1 -49 -4 -107 -8 -147 -8 -154 -9 -340 -47 -186
-37 -457 -149 -620 -256 -41 -27 -82 -56 -90 -64 -8 -9 -23 -20 -32 -25 -36
-20 -175 -162 -230 -235 -117 -156 -181 -309 -205 -489 -7 -55 -10 -5336 -3
-5353 4 -10 192 -12 848 -12 l842 0 0 85 c1 66 0 5999 0 6331 l0 76 -31 -1
c-17 -1 -31 -2 -32 -2z"/>
<path d="M8129 11461 c-79 -49 -202 -162 -280 -258 -132 -160 -211 -317 -282
-558 -48 -160 -61 -421 -31 -605 3 -19 7 -46 9 -60 9 -78 64 -245 121 -368 88
-191 293 -433 462 -546 134 -88 301 -160 432 -185 30 -6 69 -14 85 -18 17 -4
435 -8 930 -9 1154 -4 1132 -4 1204 -20 195 -45 372 -189 465 -377 63 -126 83
-215 84 -357 0 -109 -12 -180 -53 -309 -7 -22 0 -18 56 25 304 233 487 536
555 917 30 170 24 419 -15 592 -83 367 -318 706 -612 883 -164 99 -432 179
-578 173 -14 -1 -28 4 -31 9 -4 7 -324 10 -967 11 -1099 0 -1028 -5 -1208 86
-159 81 -297 258 -349 448 -44 162 -41 320 9 470 13 39 22 71 22 71 -1 1 -14
-6 -28 -15z"/>
<path d="M2371 10972 c-192 -153 -352 -310 -484 -476 -63 -78 -99 -129 -217
-306 -35 -53 -150 -280 -194 -382 -37 -89 -105 -276 -121 -338 -43 -160 -73
-308 -99 -482 -20 -131 -26 -483 -12 -653 8 -96 12 -128 26 -215 5 -30 12 -73
16 -95 11 -79 67 -292 106 -410 151 -446 378 -816 703 -1140 249 -250 511
-429 835 -573 44 -20 272 -99 307 -107 10 -2 47 -11 83 -20 36 -9 99 -22 140
-30 71 -13 108 -18 240 -32 30 -3 478 -6 995 -7 l940 -1 -1 35 c-1 48 -14 182
-19 189 -1 3 -6 24 -9 46 -7 45 -50 208 -71 270 -112 330 -344 662 -605 866
-30 23 -57 45 -60 49 -3 3 -41 28 -85 56 -266 167 -522 247 -830 259 -243 10
-294 15 -443 45 -245 51 -528 179 -732 334 -408 308 -694 761 -804 1276 -21
98 -22 105 -30 175 -4 33 -10 80 -13 104 -11 93 -4 408 12 490 1 9 6 39 9 66
12 90 64 288 105 405 72 200 211 454 327 598 32 39 29 40 -15 4z"/>
<path d="M11791 9994 c24 -32 46 -61 49 -64 20 -18 105 -171 143 -255 38 -86
87 -217 93 -250 1 -5 7 -29 13 -52 6 -23 14 -61 17 -85 3 -24 7 -49 10 -56 17
-53 24 -311 11 -437 -15 -153 -55 -334 -96 -430 -5 -11 -21 -49 -35 -85 -52
-125 -175 -323 -257 -412 -13 -14 -38 -41 -55 -59 -185 -201 -413 -336 -715
-423 -225 -65 -95 -60 -1509 -62 -707 -1 -1315 -4 -1351 -8 -80 -6 -199 -25
-211 -32 -5 -3 -20 -7 -34 -10 -24 -4 -103 -29 -134 -41 -8 -4 -17 -7 -20 -7
-22 -4 -169 -78 -235 -119 -288 -177 -513 -447 -649 -778 -36 -88 -80 -228
-90 -289 -3 -19 -8 -45 -10 -56 -9 -43 -15 -90 -21 -156 l-6 -66 2078 2 c1143
2 2093 6 2110 9 18 4 63 11 100 17 231 37 496 138 713 273 199 124 351 254
508 437 91 106 79 91 156 203 52 77 176 290 176 303 0 2 13 32 28 66 45 98 52
116 88 228 33 100 74 264 89 360 4 25 9 54 11 65 19 98 25 415 12 580 -4 50
-14 128 -23 175 -9 47 -17 94 -19 105 -10 63 -88 332 -105 360 -3 6 -6 12 -6
15 0 12 -41 102 -100 220 -162 326 -400 606 -705 831 -62 45 -64 43 -19 -17z"/>
<path d="M16078 9665 c-3 -3 -16 -8 -29 -10 -13 -3 -46 -9 -74 -15 -71 -14
-103 -19 -165 -26 -30 -3 -58 -8 -61 -10 -4 -2 -6 -366 -6 -809 l0 -805 43 -1
c24 -1 47 -2 52 -3 4 -1 34 -5 67 -10 33 -4 89 -14 125 -22 36 -9 76 -18 90
-20 97 -19 356 -127 471 -197 64 -39 142 -90 149 -97 3 -3 25 -21 50 -40 71
-53 224 -208 283 -285 147 -193 232 -367 287 -585 43 -171 42 -166 47 -580 3
-212 6 -386 8 -388 2 -2 360 -4 797 -4 l793 0 1 734 c0 505 -3 735 -10 740 -7
5 -6 8 2 8 7 0 10 5 6 11 -3 6 -8 30 -10 52 -6 66 -14 139 -19 161 -2 12 -7
37 -10 56 -12 82 -56 245 -97 360 -86 239 -248 518 -412 710 -78 91 -281 285
-371 355 -55 42 -108 86 -119 97 -76 81 -518 300 -826 410 -134 48 -337 112
-390 123 -8 2 -42 10 -75 18 -56 15 -230 48 -320 62 -57 8 -271 16 -277 10z"/>
</g>
</svg>
