<svg width="20" height="20" viewBox="0 0 20 20" fill="none" xmlns="http://www.w3.org/2000/svg">
<g clip-path="url(#clip0)">
<path d="M6.75 16.75V16.352L8.0815 12.25H11.9185L13.25 16.352V16.75H6.75Z" fill="#EFEFEF"/>
<path d="M11.7365 12.5L13 16.3915V16.5H7V16.3915L8.2635 12.5H11.7365ZM12.1 12H7.9L6.5 16.3125V17H13.5V16.3125L12.1 12Z" fill="#474747"/>
<path d="M6.75 7.75V7.352L8.0815 3.25H11.9185L13.25 7.352V7.75H6.75Z" fill="#EFEFEF"/>
<path d="M11.7365 3.5L13 7.3915V7.5H7V7.3915L8.2635 3.5H11.7365ZM12.1 3H7.9L6.5 7.3125V8H13.5V7.3125L12.1 3Z" fill="#474747"/>
<path d="M3.25 12.25V11.852L4.5815 7.75H8.4185L9.75 11.852V12.25H3.25Z" fill="#EFEFEF"/>
<path d="M8.2365 8L9.5 11.8915V12H3.5V11.8915L4.7635 8H8.2365ZM8.6 7.5H4.4L3 11.8125V12.5H10V11.8125L8.6 7.5Z" fill="#474747"/>
<path d="M10.25 12.25V11.852L11.5815 7.75H15.4185L16.75 11.852V12.25H10.25Z" fill="#EFEFEF"/>
<path d="M15.2365 8L16.5 11.8915V12H10.5V11.8915L11.7635 8H15.2365ZM15.6 7.5H11.4L10 11.8125V12.5H17V11.8125L15.6 7.5Z" fill="#474747"/>
<path d="M13.25 16.75V16.352L14.5815 12.25H18.4185L19.75 16.352V16.75H13.25Z" fill="#EFEFEF"/>
<path d="M18.2365 12.5L19.5 16.3915V16.5H13.5V16.3915L14.7635 12.5H18.2365ZM18.6 12H14.4L13 16.3125V17H20V16.3125L18.6 12Z" fill="#474747"/>
<path d="M0.25 16.75V16.352L1.5815 12.25H5.4185L6.75 16.352V16.75H0.25Z" fill="#EFEFEF"/>
<path d="M5.2365 12.5L6.5 16.3915V16.5H0.5V16.3915L1.7635 12.5H5.2365ZM5.6 12H1.4L0 16.3125V17H7V16.3125L5.6 12Z" fill="#474747"/>
<path d="M11.7285 3.5H8.27148L8.10498 4H11.895L11.7285 3.5ZM11.7285 12.5H8.27148L8.10498 13H11.895L11.7285 12.5ZM18.2285 12.5H14.7715L14.605 13H18.395L18.2285 12.5ZM5.22848 12.5H1.77148L1.60498 13H5.39498L5.22848 12.5ZM8.22848 8H4.77148L4.60498 8.5H8.39498L8.22848 8ZM15.2285 8H11.7715L11.605 8.5H15.395L15.2285 8Z" fill="white"/>
</g>
<defs>
<clipPath id="clip0">
<rect width="20" height="20" fill="white"/>
</clipPath>
</defs>
</svg>
