<svg width="1058" height="595" viewBox="0 0 1058 595" fill="none" xmlns="http://www.w3.org/2000/svg">
<path d="M242.899 216.955C243.009 216.955 243.064 216.955 243.175 216.955C243.946 216.9 244.718 216.9 245.489 216.9C244.607 216.9 243.726 216.9 242.899 216.955ZM248.961 216.9C249.732 216.9 250.504 216.955 251.275 216.955C251.385 216.955 251.495 216.955 251.551 216.955C250.724 216.9 249.842 216.9 248.961 216.9Z" fill="black"/>
<path d="M251.551 216.955C251.44 216.955 251.385 216.955 251.275 216.955C250.504 216.9 249.732 216.9 248.961 216.9C249.842 216.9 250.724 216.9 251.551 216.955Z" fill="black"/>
<path d="M251.055 485.476H247.252C246.646 485.476 246.095 485.476 245.544 485.476C245.048 485.476 244.552 485.476 244.056 485.421C213.253 484.705 185.04 473.631 162.723 455.506C143.657 440.08 128.944 419.475 120.568 395.895C115.609 381.902 112.908 366.807 112.908 351.105C112.908 278.383 170.713 219.158 242.899 216.9C243.009 216.9 243.064 216.9 243.175 216.9C196.006 218.993 158.314 257.613 157.708 305.158C157.708 305.544 157.708 305.929 157.708 306.315C157.708 307.252 157.708 308.188 157.763 309.125C145.751 327.085 138.752 348.626 138.752 371.765C138.697 433.744 188.787 484.099 251.055 485.476Z" fill="#6FBAFF"/>
<path d="M245.489 216.9C244.718 216.9 243.946 216.955 243.175 216.955C243.064 216.955 242.954 216.955 242.899 216.955C243.726 216.9 244.607 216.9 245.489 216.9Z" fill="black"/>
<path d="M336.962 126.374C336.962 134.142 335.97 141.635 334.152 148.797C324.509 186.149 291.446 214.026 251.606 215.955C250.724 215.899 249.898 215.9 249.016 215.9C248.465 215.9 247.859 215.9 247.308 215.9C246.757 215.9 246.15 215.9 245.599 215.9C244.718 215.9 243.836 215.955 243.009 215.955C170.823 218.213 113.019 277.438 113.019 350.16C113.019 365.862 115.719 380.902 120.678 394.95C128.999 418.53 143.767 439.08 162.833 454.561C185.15 472.686 213.363 483.76 244.167 484.476C213.859 483.98 185.371 475.881 160.519 462.108C132.14 446.352 108.5 423.103 92.2445 395.006C76.9806 368.671 68.2742 338.095 68.2742 305.48C68.2742 238.102 105.469 179.428 160.463 148.852C186.197 134.528 215.843 126.429 247.363 126.429H336.962V126.374Z" fill="#5B7CFF"/>
<path d="M336.962 485.476H251.055C188.787 484.099 138.697 433.799 138.697 371.875C138.697 348.736 145.696 327.195 157.708 309.235C159.196 357.386 198.706 395.95 247.197 395.95C284.613 395.95 316.684 418.814 330.129 451.374C330.68 452.696 331.176 453.963 331.672 455.285C331.727 455.34 331.727 455.45 331.782 455.506C332.664 457.985 333.435 460.464 334.097 462.998C335.915 470.215 336.907 477.708 336.962 485.476Z" fill="#6FBAFF"/>
<path opacity="0.5" d="M495.937 345.32C492.576 344.99 489.27 344.439 486.129 343.668C456.593 336.395 434.662 309.731 434.662 277.997C434.662 244.611 458.797 216.9 490.592 211.335C480.012 215.688 472.573 226.045 472.573 238.165C472.573 242.132 473.4 245.988 474.833 249.404C459.789 258.494 449.76 274.967 449.76 293.754C449.76 317.003 465.024 336.616 486.074 343.227C489.215 344.274 492.521 344.99 495.937 345.32Z" fill="#5B7CFF"/>
<path opacity="0.5" d="M501.944 345.651C501.834 345.651 501.668 345.651 501.558 345.651C501.393 345.651 501.228 345.651 501.062 345.651C499.299 345.651 497.591 345.541 495.938 345.375C497.921 345.541 499.905 345.596 501.944 345.651Z" fill="#5B7CFF"/>
<path opacity="0.5" d="M502.274 209.242H500.787C501.062 209.242 501.283 209.242 501.558 209.242C501.834 209.242 502.054 209.186 502.274 209.242Z" fill="#5B7CFF"/>
<path opacity="0.5" d="M502.274 209.242H500.787C501.062 209.242 501.283 209.242 501.558 209.242C501.834 209.242 502.054 209.186 502.274 209.242Z" fill="#5B7CFF"/>
<path d="M495.937 345.32C492.576 344.99 489.27 344.439 486.129 343.668C456.593 336.395 434.662 309.731 434.662 277.997C434.662 244.611 458.797 216.9 490.592 211.335C480.012 215.688 472.573 226.045 472.573 238.165C472.573 242.132 473.4 245.988 474.833 249.404C459.789 258.494 449.76 274.967 449.76 293.754C449.76 317.003 465.024 336.616 486.074 343.227C489.215 344.274 492.521 344.99 495.937 345.32Z" fill="#6FBAFF"/>
<path d="M697.013 130.79C697.013 152.441 688.251 172.054 674.034 186.268C659.817 200.482 640.255 209.242 618.544 209.242H605.044H502.275C502.054 209.242 501.779 209.242 501.503 209.242C501.228 209.242 501.007 209.242 500.732 209.242C497.095 209.352 493.678 210.068 490.482 211.39C458.687 216.955 434.552 244.666 434.552 278.052C434.552 313.256 461.442 342.18 495.827 345.375C497.701 345.596 499.574 345.651 501.448 345.651C442.101 345.651 393.995 297.555 393.995 238.22C393.995 226.926 395.758 216.073 398.954 205.881C405.677 184.56 418.847 166.159 436.205 152.882C454.279 139.054 476.927 130.79 501.448 130.79H697.013Z" fill="#5B7CFF"/>
<path d="M641.357 318.986C641.357 337.828 631.329 354.3 616.285 363.336C611.877 352.923 601.572 345.596 589.56 345.596H502.826C503.156 345.596 503.487 345.596 503.873 345.596C503.542 345.596 503.211 345.596 502.881 345.596C502.605 345.596 502.275 345.596 501.944 345.596H501.889C499.85 345.596 497.866 345.486 495.882 345.32C492.521 344.935 489.215 344.274 486.074 343.282C465.024 336.726 449.76 317.058 449.76 293.809C449.76 274.967 459.789 258.494 474.833 249.459C479.241 259.872 489.545 267.199 501.558 267.199H589.174C591.213 267.199 593.196 267.309 595.18 267.475C598.542 267.86 601.848 268.521 604.989 269.513C626.094 276.124 641.357 295.792 641.357 318.986Z" fill="#6FBAFF"/>
<path opacity="0.5" d="M501.944 345.651C501.834 345.651 501.668 345.651 501.558 345.651C501.393 345.651 501.228 345.651 501.062 345.651C499.299 345.651 497.591 345.541 495.938 345.375C497.921 345.541 499.905 345.596 501.944 345.651Z" fill="#5B7CFF"/>
<path opacity="0.5" d="M656.456 334.853C656.456 368.239 632.32 395.95 600.525 401.515C611.105 397.162 618.544 386.805 618.544 374.685C618.544 370.718 617.718 366.862 616.285 363.446C631.328 354.356 641.357 337.883 641.357 319.096C641.357 295.847 626.093 276.234 605.044 269.623C601.903 268.631 598.596 267.915 595.235 267.585C598.596 267.915 601.903 268.466 605.044 269.237C634.58 276.4 656.456 303.064 656.456 334.853Z" fill="#5B7CFF"/>
<path d="M656.456 334.853C656.456 368.239 632.32 395.95 600.525 401.515C611.105 397.162 618.544 386.805 618.544 374.685C618.544 370.718 617.718 366.862 616.285 363.446C631.328 354.356 641.357 337.883 641.357 319.096C641.357 295.847 626.093 276.234 605.044 269.623C601.903 268.631 598.596 267.915 595.235 267.585C598.596 267.915 601.903 268.466 605.044 269.237C634.58 276.4 656.456 303.064 656.456 334.853Z" fill="#6FBAFF"/>
<path d="M394.105 482.06C394.105 460.409 402.867 440.796 417.083 426.582C431.3 412.368 450.862 403.608 472.573 403.608H486.129H588.898C589.119 403.608 589.394 403.608 589.67 403.608C589.945 403.608 590.166 403.608 590.441 403.608C594.078 403.498 597.494 402.782 600.691 401.46C632.486 395.895 656.621 368.184 656.621 334.798C656.621 299.594 629.73 270.67 595.345 267.475C593.472 267.254 591.598 267.199 589.725 267.199C649.072 267.199 697.178 315.295 697.178 374.63C697.178 385.924 695.415 396.777 692.219 406.969C685.496 428.29 672.326 446.691 654.968 459.968C636.894 473.796 614.246 482.06 589.725 482.06H394.105V482.06Z" fill="#5B7CFF"/>
<path opacity="0.5" d="M793.5 237.945C793.335 239.212 793.28 240.479 793.225 241.801V241.857C793.225 242.132 793.225 242.407 793.225 242.683V243.179V241.857C793.225 241.691 793.225 241.471 793.225 241.306V240.589C793.225 240.534 793.225 240.534 793.225 240.479C793.28 239.653 793.335 238.771 793.5 237.945Z" fill="#5B7CFF"/>
<path d="M959.859 311.659C954.514 318.215 948.453 324.11 941.785 329.288C941.014 325.928 898.969 300.199 861.443 298.712C862.05 298.547 862.601 298.381 863.207 298.161C884.477 296.068 940.353 292.597 959.859 311.659Z" fill="#5B7CFF"/>
<path d="M984.822 241.581C984.822 268.191 975.454 292.542 959.859 311.659C940.408 292.542 884.477 296.068 863.207 298.161C873.015 295.076 881.832 290.338 889.106 284.388C897.922 277.116 904.48 268.081 907.786 257.944C909.329 253.095 910.211 248.027 910.211 242.848C910.211 235.3 908.447 228.083 905.306 221.472C895.277 200.482 870.921 185.276 841.881 183.624C840.173 183.513 838.41 183.458 836.647 183.458C803.584 183.458 775.591 201.088 766.334 225.329C764.846 229.24 763.799 233.372 763.358 237.559V237.614C763.193 238.441 763.083 239.322 763.083 240.204C763.138 235.851 763.413 231.554 763.964 227.312C767.215 201.969 779.008 179.326 796.31 162.358C808.929 150.017 824.468 140.651 841.826 135.362C851.965 132.277 862.766 130.625 873.952 130.625C935.118 130.735 984.822 180.373 984.822 241.581Z" fill="#5B7CFF"/>
<path opacity="0.5" d="M793.5 237.945C793.335 239.212 793.28 240.479 793.225 241.801V241.857C793.225 242.132 793.225 242.407 793.225 242.683V243.179V241.03C793.225 240.92 793.225 240.81 793.225 240.7V240.644C793.225 240.589 793.225 240.589 793.225 240.534C793.28 239.653 793.335 238.771 793.5 237.945Z" fill="#5B7CFF"/>
<path d="M841.771 204.889V482.115H762.972V242.848V242.352C762.972 242.077 762.972 241.801 762.972 241.526V241.471C763.027 240.204 763.082 238.881 763.248 237.614V237.559C766.609 219.213 799.727 204.834 840.063 204.834C840.669 204.889 841.22 204.889 841.771 204.889Z" fill="#6FBAFF"/>
<path opacity="0.5" d="M793.5 237.945C793.335 239.212 793.28 240.479 793.225 241.801C793.225 241.636 793.225 241.526 793.225 241.361V241.14C793.225 241.085 793.225 241.03 793.225 241.03C793.225 240.92 793.225 240.81 793.225 240.7V240.644C793.225 240.589 793.225 240.589 793.225 240.534C793.28 239.653 793.335 238.771 793.5 237.945Z" fill="#5B7CFF"/>
<path d="M984.822 417.051V482.17H910.762V451.484C910.762 413.415 879.903 382.563 841.826 382.563V302.128C848.659 301.742 855.272 300.585 861.444 298.822C898.969 300.31 941.014 325.983 941.785 329.399C967.96 349.618 984.822 381.351 984.822 417.051Z" fill="#5B7CFF"/>
<path d="M841.771 183.623V204.889C841.22 204.889 840.669 204.889 840.118 204.889C799.782 204.889 766.664 219.268 763.303 237.614C763.744 233.372 764.791 229.295 766.279 225.384C775.536 201.143 803.529 183.513 836.591 183.513C838.3 183.458 840.063 183.513 841.771 183.623Z" fill="#6FBAFF"/>
</svg>
