<svg width="17" height="116" viewBox="0 0 17 116" fill="none" xmlns="http://www.w3.org/2000/svg">
<g clip-path="url(#clip0)">
<path fill-rule="evenodd" clip-rule="evenodd" d="M9.73634 110.878C9.02589 110.291 8.8153 109.633 9.52321 108.755L16.1228 100.998C16.6911 100.337 17.4016 99.6797 16.6201 99.0195L9.8759 93.1651C9.16799 92.5799 8.81528 91.7746 9.66528 91.0419L16.2648 83.2818C16.8332 82.5516 17.4016 81.7463 16.6201 81.0887L9.8759 75.2317C9.16799 74.6465 8.81528 73.8412 9.66528 73.1085L16.2648 65.351C16.8332 64.6907 17.4016 63.8855 16.6201 63.1553L9.28215 56.7235C8.99289 56.2652 9.01321 55.7473 9.52321 55.1129L16.1228 47.3554C16.6911 46.6952 17.4016 46.0375 16.6201 45.3772L9.8759 39.5255C9.16799 38.9377 8.81528 38.1324 9.66528 37.4022L16.2648 29.6421C16.8332 28.9094 17.4016 28.1041 16.6201 27.4464L9.8759 21.5921C9.16799 21.0043 8.81528 20.199 9.66528 19.4688L16.2648 11.7113C16.8332 11.0511 17.4016 10.2458 16.6201 9.51303L5.76289 0L1.64738 0L7.3944 4.9766C8.17336 5.63428 7.53648 6.58454 7.03917 7.17231L0.439615 14.9324C-0.270832 15.7377 0.0133381 16.3953 0.65274 16.9805L7.3944 22.91C8.10231 23.4952 7.53648 24.518 7.03917 25.0306L0.439615 32.7881C-0.270832 33.6685 -0.0551701 34.3261 0.65274 34.9113L7.3944 40.7683C8.17336 41.426 7.53648 42.3788 7.03917 42.9614L0.439615 50.7215C-0.270832 51.5268 0.0133381 52.1845 0.65274 52.7722L7.60753 58.9554C7.92469 59.5743 7.45783 60.3174 7.03917 60.812L0.439615 68.572C-0.270832 69.3773 0.0133381 70.035 0.65274 70.6228L7.3944 76.5496C8.10231 77.1348 7.53648 78.1602 7.03917 78.6728L0.439615 86.4304C-0.270832 87.3081 -0.0551701 87.9658 0.65274 88.5536L7.3944 94.4079C8.17336 95.0656 7.53648 96.0211 7.03917 96.6037L0.439615 104.364C-0.270832 105.169 0.0133381 105.827 0.65274 106.412L11.4389 116H15.4834L9.73634 110.878Z" fill="#FF5BAA"/>
</g>
<defs>
<clipPath id="clip0">
<rect width="116" height="17" fill="white" transform="translate(17) rotate(90)"/>
</clipPath>
</defs>
</svg>
