<svg width="76" height="25" viewBox="0 0 76 25" fill="none" xmlns="http://www.w3.org/2000/svg">
<path fill-rule="evenodd" clip-rule="evenodd" d="M63.1534 13.3728C56.5336 18.2352 50.8862 18.2352 44.2656 13.3728C39.9488 10.2022 36.2628 10.2022 31.9468 13.3728C25.388 18.188 20.0402 18.188 13.4822 13.3728C9.11702 10.1653 6.16889 10.1653 1.80058 13.3728L0 11.0205C5.30743 7.12403 9.76608 6.96605 15.2843 11.0205C20.4863 14.8411 24.3253 15.2944 30.1462 11.0205C35.6637 6.96605 40.7944 7.14856 46.0677 11.0205C51.4806 14.997 55.7276 15.1529 61.3521 11.0205C66.8735 6.96605 70.4826 6.96605 76 11.0205L74.1986 13.3728C69.7622 10.112 67.5923 10.112 63.1534 13.3728ZM63.1534 5.39319C56.5336 10.2555 50.8862 10.2555 44.2656 5.39319C39.9488 2.2206 36.2628 2.2206 31.9468 5.39319C25.388 10.2084 20.0402 10.2084 13.4822 5.39319C9.11702 2.18569 6.16889 2.18569 1.80058 5.39319L0 3.04081C5.30743 -0.857719 9.76608 -1.0136 15.2843 3.04081C20.4863 6.86148 24.3253 7.31466 30.1462 3.04081C35.6637 -1.0136 40.7944 -0.831093 46.0677 3.04081C51.4806 7.01729 55.7276 7.17325 61.3521 3.04081C66.8735 -1.0136 70.4826 -1.0136 76 3.04081L74.1986 5.39319C69.7622 2.13236 67.5923 2.13236 63.1534 5.39319ZM15.2843 19.0003C20.4863 22.823 24.3253 23.2741 30.1462 19.0003C35.6637 14.9458 40.7944 15.1284 46.0677 19.0003C51.4806 22.9787 55.7276 23.1347 61.3521 19.0003C66.8735 14.9458 70.4826 14.9458 76 19.0003L74.1986 21.3525C69.7622 18.0939 67.5923 18.0939 63.1534 21.3525C56.5336 26.2151 50.8862 26.2166 44.2656 21.3525C39.9488 18.182 36.2628 18.182 31.9468 21.3525C25.388 26.1702 20.0402 26.1702 13.4822 21.3525C9.11702 18.1451 6.16889 18.1451 1.80058 21.3525L0 19.0003C5.30743 15.1036 9.76608 14.9457 15.2843 19.0002V19.0003Z" fill="#2BD7D7"/>
</svg>
