<svg width="18" height="18" viewBox="0 0 18 18" fill="none" xmlns="http://www.w3.org/2000/svg">
<path d="M14.9852 4.49264C14.7904 4.49844 14.6054 4.57988 14.4696 4.71969L6.74988 12.4394L4.28015 9.96969C4.21104 9.89771 4.12827 9.84024 4.03667 9.80065C3.94508 9.76106 3.8465 9.74015 3.74672 9.73913C3.64694 9.73812 3.54796 9.75702 3.45558 9.79474C3.36319 9.83246 3.27926 9.88823 3.20871 9.95879C3.13815 10.0293 3.08238 10.1133 3.04466 10.2057C3.00694 10.298 2.98804 10.397 2.98905 10.4968C2.99007 10.5966 3.01098 10.6952 3.05057 10.7868C3.09016 10.8783 3.14763 10.9611 3.21961 11.0302L6.21961 14.0302C6.36026 14.1708 6.551 14.2498 6.74988 14.2498C6.94876 14.2498 7.1395 14.1708 7.28015 14.0302L15.5302 5.78023C15.6385 5.67489 15.7126 5.53926 15.7425 5.39112C15.7725 5.24298 15.757 5.08924 15.6981 4.95005C15.6392 4.81086 15.5396 4.69271 15.4124 4.61109C15.2852 4.52947 15.1363 4.48818 14.9852 4.49264Z" fill="#2BD7D7"/>
</svg>
